<svg viewBox="0 0 792 180.7" 
    xmlns="http://www.w3.org/2000/svg" enable-background="new 0 0 792 180.7" version="1.1" xml:space="preserve">
    <style>.st0{fill:#004251}.st1{fill:#3aa9e0}</style>
    <path d="M157.7,74h10.3l19.9,45.9h0.2l20-45.9h10.1v58.6h-6.9V83.5h-0.2l-21,49.1h-4.2l-21-49.1h-0.2v49.1h-6.9V74z" class="st0"></path>
    <path d="M246.6,107.4L224.7,74h8.9l16.5,26.5L267,74h8.4l-21.8,33.3v25.2h-6.9V107.4z" class="st0"></path>
    <path d="m87.7 135.7c-1.3 0-2.4-1.1-2.4-2.4s1.1-2.4 2.4-2.4c14.4 0 26-11.7 26-26 0-1.3 1.1-2.4 2.4-2.4s2.4 1.1 2.4 2.4c0 17-13.8 30.8-30.8 30.8z" class="st1"></path>
    <path d="M287.6,74.8h38.8v11.8h-26v11.8h24.1v11.8h-24.1v22.5h-12.7V74.8z" class="st1"></path>
    <path d="m332.4 103.7c0-4.6 0.8-8.8 2.3-12.6 1.6-3.8 3.7-7 6.5-9.6s6.1-4.7 9.9-6.1 8-2.1 12.5-2.1 8.7 0.7 12.5 2.1 7.1 3.4 9.9 6.1c2.8 2.6 4.9 5.8 6.5 9.6s2.3 7.9 2.3 12.6c0 4.6-0.8 8.8-2.3 12.6-1.6 3.8-3.7 7-6.5 9.6s-6.1 4.7-9.9 6.1-8 2.1-12.5 2.1-8.7-0.7-12.5-2.1-7.1-3.4-9.9-6.1c-2.8-2.6-4.9-5.8-6.5-9.6-1.5-3.8-2.3-8-2.3-12.6zm13.3 0c0 2.7 0.4 5.2 1.3 7.5 0.8 2.3 2.1 4.2 3.6 5.9 1.6 1.7 3.5 3 5.7 3.9s4.7 1.4 7.4 1.4 5.2-0.5 7.4-1.4 4.1-2.2 5.7-3.9 2.8-3.6 3.6-5.9 1.3-4.7 1.3-7.5c0-2.7-0.4-5.1-1.3-7.4-0.8-2.3-2.1-4.3-3.6-5.9-1.6-1.7-3.5-3-5.7-3.9s-4.7-1.4-7.4-1.4-5.2 0.5-7.4 1.4-4.1 2.2-5.7 3.9-2.8 3.6-3.6 5.9c-0.9 2.3-1.3 4.7-1.3 7.4z" class="st1"></path>
    <path d="m400.4 103.7c0-4.6 0.8-8.8 2.3-12.6 1.6-3.8 3.7-7 6.5-9.6s6.1-4.7 9.9-6.1 8-2.1 12.5-2.1 8.7 0.7 12.5 2.1 7.1 3.4 9.9 6.1c2.8 2.6 4.9 5.8 6.5 9.6s2.3 7.9 2.3 12.6c0 4.6-0.8 8.8-2.3 12.6-1.6 3.8-3.7 7-6.5 9.6s-6.1 4.7-9.9 6.1-8 2.1-12.5 2.1-8.7-0.7-12.5-2.1-7.1-3.4-9.9-6.1c-2.8-2.6-4.9-5.8-6.5-9.6s-2.3-8-2.3-12.6zm13.2 0c0 2.7 0.4 5.2 1.3 7.5 0.8 2.3 2.1 4.2 3.6 5.9 1.6 1.7 3.5 3 5.7 3.9s4.7 1.4 7.4 1.4 5.2-0.5 7.4-1.4 4.1-2.2 5.7-3.9 2.8-3.6 3.6-5.9 1.3-4.7 1.3-7.5c0-2.7-0.4-5.1-1.3-7.4-0.8-2.3-2.1-4.3-3.6-5.9-1.6-1.7-3.5-3-5.7-3.9s-4.7-1.4-7.4-1.4-5.2 0.5-7.4 1.4-4.1 2.2-5.7 3.9-2.8 3.6-3.6 5.9c-0.9 2.3-1.3 4.7-1.3 7.4z" class="st1"></path>
    <path d="m471.4 74.8h19.1c4.6 0 9 0.5 13.2 1.6 4.2 1 7.8 2.7 10.9 5s5.6 5.3 7.4 9 2.7 8.2 2.7 13.5c0 4.7-0.9 8.8-2.7 12.4s-4.2 6.6-7.1 9c-3 2.4-6.5 4.3-10.4 5.5-3.9 1.3-8 1.9-12.3 1.9h-20.8v-57.9zm12.7 46.1h6.6c2.9 0 5.7-0.3 8.2-0.9s4.7-1.6 6.6-3c1.8-1.4 3.3-3.2 4.4-5.5s1.6-5 1.6-8.3c0-2.8-0.5-5.3-1.6-7.4s-2.5-3.8-4.3-5.2-3.9-2.4-6.3-3.1-5-1-7.6-1h-7.5v34.4z" class="st1"></path>
    <path d="m538.6 74h22.5c1.9 0 4 0.2 6.1 0.7 2.2 0.4 4.3 1.1 6.4 2.1s4.2 2.2 6.1 3.8c2 1.5 3.7 3.4 5.2 5.6s2.7 4.7 3.6 7.5 1.3 6.1 1.3 9.6-0.4 6.8-1.3 9.6-2.1 5.4-3.6 7.5c-1.5 2.2-3.2 4-5.2 5.6-2 1.5-4 2.8-6.1 3.8s-4.3 1.7-6.4 2.1c-2.2 0.4-4.2 0.7-6.1 0.7h-22.5v-58.6zm7 52.2h13.2c3.4 0 6.5-0.4 9.3-1.3 2.9-0.9 5.3-2.2 7.4-4.1 2.1-1.8 3.7-4.2 5-7.1 1.2-2.9 1.8-6.3 1.8-10.3s-0.6-7.5-1.8-10.3c-1.2-2.9-2.9-5.2-5-7.1-2.1-1.8-4.6-3.2-7.4-4.1-2.9-0.9-6-1.3-9.3-1.3h-13.2v45.6z" class="st0"></path>
    <path d="m616.7 74h6.5l24.9 58.6h-8.1l-6-14.4h-29.3l-6 14.4h-7.9l25.9-58.6zm3.1 9h-0.2l-12.2 28.8h23.9l-11.5-28.8z" class="st0"></path>
    <path d="M687.6,80.5h-19.4v52.1h-6.9V80.5h-19.4V74h45.7V80.5z" class="st0"></path>
    <path d="m707.2 74h6.5l24.9 58.6h-8.1l-6-14.4h-29.3l-6 14.4h-7.9l25.9-58.6zm3.1 9h-0.2l-12.1 28.8h23.9l-11.6-28.8z" class="st0"></path>
    <path d="m108.1 66c0.7-1.8 1-3.7 1-5.5v-20h-0.5c-5.6 0-10.9 2.2-14.5 6.1-0.9-8.8-9.2-15.7-19-15.7h-0.5v20c0 4.2 1.6 8.1 4.6 11.3-19.9 4.1-34.3 21.8-34.3 42.3 0 23.9 19.4 43.3 43.3 43.3s43.3-19.4 43.3-43.3c0.1-16.3-8.9-31-23.4-38.5zm-12.4-8.1c0-4.3 2.9-8.2 7.3-10.1v12.7c0 1.2-0.2 2.4-0.7 3.5-0.6 1.5-1.4 2.8-2.6 3.9-1.1 1.1-2.5 2-4 2.6v-12.6zm-14.9-19.8c4.5 1.9 7.3 5.8 7.3 10.1v12.7c-4.5-1.9-7.3-5.8-7.3-10.1v-12.7zm7.5 103.9c-20.7 0-37.6-16.9-37.6-37.6 0-19.8 15.1-35.9 34.7-37.4l4.1-0.5-0.1 7.6v3.6h0.6c5.9 0 11.6-2.6 15.2-6.9 12.7 6.5 20.6 19.3 20.6 33.5 0 20.9-16.8 37.7-37.5 37.7z" class="st0"></path>
</svg>